# xmcd
# 
# Track frame offsets:
#     150
#     17159
#     37834
#     55764
#     74791
#     92372
#     104823
#     120823
#     136514
#     153543
# 
# Disc length: 2260
# 
# Revision: 0
# Processed by: cddbd v1.5.2PL0 Copyright (c) Steve Scherf et al.
# Submitted via: fre:ac v1.0.31
# 
DISCID=7908d20a
DTITLE=Andrea Eletti - Quedémonos aquí
DYEAR=2016
DGENRE=Tango
TTITLE0=Nido gaucho
TTITLE1=Fruta amarga
TTITLE2=Soledad
TTITLE3=Quedémonos aquí
TTITLE4=Barrio pobre
TTITLE5=Bien criolla y bien porteña
TTITLE6=Recuerdo
TTITLE7=Alma en pena
TTITLE8=Cristal
TTITLE9=Garua
EXTD=
EXTT0=
EXTT1=
EXTT2=
EXTT3=
EXTT4=
EXTT5=
EXTT6=
EXTT7=
EXTT8=
EXTT9=
PLAYORDER=
